<?xml version="1.0" encoding="utf-8"?>
<!-- Generator: Adobe Illustrator 24.0.0, SVG Export Plug-In . SVG Version: 6.00 Build 0)  -->
<svg version="1.1" id="Layer_1" xmlns="http://www.w3.org/2000/svg" xmlns:xlink="http://www.w3.org/1999/xlink" x="0px" y="0px"
	 viewBox="0 0 800 600" style="enable-background:new 0 0 800 600;" xml:space="preserve">
<style type="text/css">
	.st0{fill:#FFFFFF;}
	.st1{fill:#FFFFFF;}
</style>
<g>
	<g>
		<g>
			<g>
				<path class="st0" d="M212.8,502.8c6,0,11.8,3.2,15,7.6c0.1,0.1,0.2,0.2,0.2,0.3c0.1,0.2,0.3,0.4,0.4,0.5l0,0
					c2.1,2.7,5.4,4.4,9.1,4.4c6.5,0,11.7-5.2,11.7-11.7c0-3-1.2-5.8-3-7.8c-8-9.9-17.6-15.6-33.4-15.6c-25.1,0-44,17.4-44,41.7
					c0,24.7,18.9,42.1,44,42.1c16,0,25.5-5.7,33.4-14.5l0,0c1.8-2,2.9-4.7,2.9-7.6c0-6.3-5.1-11.4-11.4-11.4c-3.5,0-6.5,1.5-8.6,4
					c-3.8,3.8-8.1,7.5-16.2,7.5c-11.5,0-17.9-8.3-17.9-20C194.8,511,201.3,502.8,212.8,502.8z M569.5,512.5c-11-2.5-16.1-3-16.1-7.5
					c0-3.2,2.8-4.7,8.7-4.7c6,0,11.7,2.8,15.5,6l0,0c1.8,1.7,4.2,2.7,6.8,2.7c5.5,0,10-4.5,10-10c0-2.9-1.3-5.6-3.3-7.4
					c-6.6-6.7-16-11-29.1-11c-17.2,0-31.2,7.4-31.2,25.5c0,16.8,12.3,22.8,23.2,25.7c13,3.4,18.1,3.4,18.1,7.7
					c0,3.4-2.6,4.9-10.9,4.9c-6.5,0-12.6-2.4-17.6-6.4l0.2,0.2c0,0,0,0,0,0c-4.1-3.7-10.3-3.5-14.2,0.5c-3.1,3.2-3.6,8-1.6,11.8
					c0.1,0.1,0.1,0.3,0.2,0.4c0.2,0.3,0.4,0.6,0.6,0.9c0.2,0.2,0.3,0.4,0.5,0.6c0.2,0.2,0.4,0.5,0.6,0.7c0.2,0.2,0.3,0.3,0.5,0.4
					c7,6.3,17.1,11,32.5,11c25.3,0,33-12.1,33-26.8C595.9,520.6,581.1,515.1,569.5,512.5z M378.4,480.6c-24.9,0-44.4,17.6-44.4,42.1
					c0,24.3,19.4,41.7,44.4,41.7c24.9,0,44.2-17.4,44.2-41.7C422.6,498.1,403.3,480.6,378.4,480.6z M378.4,542.9
					c-11.3,0-18.3-8.3-18.3-20.2c0-12.1,7-20.2,18.3-20.2c11.3,0,18.1,8.1,18.1,20.2C396.6,534.6,389.8,542.9,378.4,542.9z
					 M480.1,502.8c6,0,11.9,3.2,15,7.6c0.1,0.1,0.2,0.2,0.3,0.4c0.1,0.2,0.3,0.3,0.4,0.5l0,0c2.1,2.7,5.4,4.4,9.1,4.4
					c6.4,0,11.7-5.2,11.7-11.7c0-3-1.2-5.8-3.1-7.9c-8-9.9-17.6-15.6-33.4-15.6c-25.1,0-44,17.4-44,41.7c0,24.7,18.9,42.1,44,42.1
					c16.1,0,25.5-5.7,33.4-14.5l0,0c1.8-2,2.9-4.7,2.9-7.6c0-6.3-5.1-11.4-11.4-11.4c-3.5,0-6.5,1.5-8.7,4
					c-3.8,3.8-8.1,7.5-16.2,7.5c-11.5,0-17.9-8.3-17.9-20C462.2,511,468.6,502.8,480.1,502.8z"/>
			</g>
			<path class="st0" d="M321.4,485.7c-3.9-2.1-6.7-2.5-12.5-2c-10.5,0.9-18.7,8.3-20.2,10.1v0.5c0-0.2,0-0.3,0-0.5c0,0,0,0,0,0v-0.1
				c-0.5-6.7-6.1-12.1-13-12.1c-7.1,0-12.9,5.7-13,12.7v57c0.2,7,6,12.6,13,12.6c7.1,0,12.9-5.7,13-12.8v-15.5
				c0-21.1,12.2-26.5,19.1-26.6c1.8,0,6.5,1.7,10.1,1.1c7.1-1.3,11.8-8.1,10.5-15.2C327.6,490.8,325,487.5,321.4,485.7z"/>
		</g>
	</g>
	<g>
		<path d="M603.5,481.4h0.4v-2c0-0.5,0-1,0-1.3c0-0.3,0.1-0.6,0.2-0.8c0.1-0.2,0.3-0.4,0.6-0.6c0.2-0.1,0.5-0.2,0.8-0.2
			c0.4,0,0.8,0.2,1.1,0.5c0.2,0.2,0.4,0.5,0.4,0.8c0.1,0.3,0.1,0.7,0.1,1.3v2.3h1.2c0.5,0,0.8,0.1,1.1,0.3c0.2,0.2,0.4,0.5,0.4,0.9
			c0,0.4-0.2,0.8-0.5,0.9c-0.4,0.2-0.9,0.3-1.5,0.3h-0.6v6.1c0,0.5,0,0.9,0.1,1.2c0,0.3,0.1,0.5,0.3,0.7c0.2,0.2,0.4,0.3,0.8,0.3
			c0.2,0,0.5,0,0.8-0.1c0.3-0.1,0.6-0.1,0.8-0.1c0.3,0,0.5,0.1,0.7,0.3c0.2,0.2,0.3,0.5,0.3,0.8c0,0.5-0.3,0.9-0.9,1.2
			c-0.6,0.3-1.4,0.4-2.5,0.4c-1,0-1.8-0.2-2.4-0.5c-0.5-0.4-0.9-0.8-1-1.4c-0.2-0.6-0.2-1.4-0.2-2.5v-6.4h-0.4
			c-0.5,0-0.8-0.1-1.1-0.3c-0.3-0.2-0.4-0.5-0.4-0.9c0-0.4,0.1-0.6,0.4-0.9C602.6,481.5,603,481.4,603.5,481.4z"/>
		<path d="M623.4,488.1v4.4c0,0.7-0.2,1.2-0.5,1.6c-0.3,0.3-0.7,0.5-1.3,0.5c-0.5,0-0.9-0.2-1.2-0.5c-0.3-0.4-0.5-0.9-0.5-1.6v-5.3
			c0-0.8,0-1.5-0.1-1.9c-0.1-0.5-0.2-0.8-0.5-1.1c-0.3-0.3-0.6-0.4-1.2-0.4c-1.1,0-1.8,0.4-2.1,1.1c-0.4,0.7-0.5,1.8-0.5,3.2v4.5
			c0,0.7-0.2,1.2-0.5,1.6c-0.3,0.4-0.7,0.5-1.2,0.5c-0.5,0-0.9-0.2-1.2-0.5c-0.3-0.4-0.5-0.9-0.5-1.6V483c0-0.6,0.1-1.1,0.4-1.4
			c0.3-0.3,0.7-0.5,1.1-0.5c0.5,0,0.8,0.1,1.1,0.5c0.3,0.3,0.5,0.7,0.5,1.3v0.3c0.6-0.7,1.2-1.2,1.8-1.5c0.7-0.3,1.4-0.5,2.2-0.5
			c0.8,0,1.5,0.2,2.1,0.5c0.6,0.3,1.1,0.8,1.5,1.5c0.6-0.7,1.2-1.2,1.8-1.5c0.6-0.3,1.4-0.5,2.1-0.5c0.9,0,1.7,0.2,2.3,0.5
			c0.7,0.4,1.1,0.9,1.5,1.5c0.3,0.6,0.4,1.5,0.4,2.8v6.5c0,0.7-0.2,1.2-0.5,1.6c-0.3,0.3-0.7,0.5-1.3,0.5c-0.5,0-0.9-0.2-1.2-0.5
			c-0.3-0.4-0.5-0.9-0.5-1.6V487c0-0.7,0-1.3-0.1-1.7c-0.1-0.4-0.2-0.8-0.5-1.1c-0.3-0.3-0.7-0.4-1.2-0.4c-0.4,0-0.9,0.1-1.3,0.4
			c-0.4,0.3-0.7,0.6-0.9,1C623.5,485.7,623.4,486.7,623.4,488.1z"/>
	</g>
	<g>
		<g>
			<path d="M238.2,230.1c0,0-2.8,4.2-4.9,3.8c-2.1-0.4-3.2-1.2-1.7-4c0,0,2.9-2.1,4.3-2c1.4,0.1,1.9-0.2,2.3-0.7
				C238.5,226.6,239.9,228.4,238.2,230.1z"/>
			<g>
				<path d="M579.9,240c0,112.9-91.5,204.4-204.4,204.4c-112.9,0-204.4-91.5-204.4-204.4c0-112.9,91.5-204.4,204.4-204.4
					C488.4,35.6,579.9,127.1,579.9,240z"/>
				<path class="st1" d="M185.7,240.1c0,104.6,85.1,189.6,189.6,189.6c104.6,0,189.6-85.1,189.6-189.6
					c0-104.5-85.1-189.6-189.6-189.6C270.8,50.5,185.7,135.5,185.7,240.1z M195.9,240.1c0-98.9,80.5-179.4,179.4-179.4
					c98.9,0,179.4,80.5,179.4,179.4c0,98.9-80.5,179.4-179.4,179.4C276.4,419.5,195.9,339,195.9,240.1z"/>
				<g>
					<g>
						<path class="st1" d="M500,234.1h0.5v-2.8c0-0.8,0-1.4,0.1-1.8c0-0.4,0.2-0.8,0.3-1.1c0.2-0.3,0.4-0.6,0.8-0.8
							c0.3-0.2,0.7-0.3,1.1-0.3c0.6,0,1.1,0.2,1.6,0.7c0.3,0.3,0.5,0.7,0.6,1.1c0.1,0.4,0.1,1,0.1,1.8v3.2h1.7
							c0.7,0,1.2,0.2,1.5,0.5c0.4,0.3,0.5,0.7,0.5,1.2c0,0.6-0.3,1.1-0.7,1.3c-0.5,0.2-1.2,0.4-2.1,0.4h-0.9v8.6
							c0,0.7,0,1.3,0.1,1.7c0,0.4,0.2,0.7,0.4,1c0.2,0.3,0.6,0.4,1.1,0.4c0.3,0,0.6-0.1,1.1-0.1c0.5-0.1,0.8-0.1,1.1-0.1
							c0.4,0,0.7,0.2,1,0.5c0.3,0.3,0.5,0.7,0.5,1.1c0,0.7-0.4,1.3-1.2,1.7c-0.8,0.4-2,0.6-3.5,0.6c-1.5,0-2.6-0.3-3.3-0.7
							c-0.8-0.5-1.3-1.2-1.5-2c-0.2-0.9-0.4-2-0.4-3.5v-9h-0.6c-0.7,0-1.2-0.2-1.5-0.5c-0.4-0.3-0.5-0.7-0.5-1.2
							c0-0.5,0.2-0.9,0.6-1.2C498.8,234.2,499.3,234.1,500,234.1z"/>
						<path class="st1" d="M528.1,243.4v6.2c0,1-0.2,1.7-0.7,2.2c-0.4,0.5-1,0.7-1.8,0.7c-0.7,0-1.3-0.3-1.7-0.7
							c-0.4-0.5-0.7-1.2-0.7-2.2v-7.5c0-1.2,0-2.1-0.1-2.7c-0.1-0.6-0.3-1.2-0.6-1.6c-0.4-0.4-0.9-0.6-1.7-0.6c-1.5,0-2.5,0.5-3,1.6
							c-0.5,1-0.7,2.6-0.7,4.5v6.3c0,1-0.2,1.7-0.7,2.2c-0.4,0.5-1,0.8-1.7,0.8c-0.7,0-1.3-0.3-1.7-0.7c-0.5-0.5-0.7-1.2-0.7-2.2
							v-13.4c0-0.9,0.2-1.5,0.6-2c0.4-0.5,0.9-0.7,1.6-0.7c0.6,0,1.2,0.2,1.6,0.6c0.4,0.4,0.6,1,0.6,1.7v0.4c0.8-1,1.7-1.7,2.6-2.1
							c0.9-0.5,2-0.7,3.1-0.7c1.2,0,2.2,0.2,3,0.7c0.8,0.5,1.5,1.2,2.1,2.1c0.8-0.9,1.6-1.6,2.5-2.1c0.9-0.5,1.9-0.7,3-0.7
							c1.3,0,2.4,0.2,3.3,0.7c0.9,0.5,1.6,1.2,2.1,2.1c0.4,0.8,0.6,2.2,0.6,4v9.1c0,1-0.2,1.7-0.7,2.2c-0.4,0.5-1,0.7-1.8,0.7
							c-0.7,0-1.3-0.3-1.7-0.8c-0.5-0.5-0.7-1.2-0.7-2.2v-7.9c0-1,0-1.8-0.1-2.4c-0.1-0.6-0.3-1.1-0.7-1.5c-0.4-0.4-0.9-0.6-1.7-0.6
							c-0.6,0-1.2,0.2-1.8,0.5c-0.6,0.4-1,0.9-1.3,1.5C528.3,240.1,528.1,241.4,528.1,243.4z"/>
					</g>
					<g>
						<g>
							<path class="st1" d="M415.9,302.2c-1.5-3.7-10.8-0.7-10.8-0.7c-52.5,2.9-70.7-4.8-70.7-4.8s-5.8-1.8-6.9-1.6
								c-1.1,0.2-6.6,0.1-6.8,6.6c-0.2,6.6,8.9,6.9,10.2,6.9c1.3,0,4.8,0.6,4.8,0.6c19.1,6.5,64.1,4.6,64.1,4.6s3.8-0.4,5.7-0.7
								C413.6,311.8,417.4,305.8,415.9,302.2z M527.7,266.2c-12.5-4-28.6-0.4-28.6-0.4s-2.3-5.5-9.4-9.4c-4.5-2.4-13.5-4.7-21-4.9
								c-3.6-0.1-17,2.4-22.4,4.4c-0.8,0.3-3.7,0.9-3.2-2.1c0.5-2.3,6-5.9,10.1-7c9.1-2.4,19.9-3.5,24.8-1.3
								c8.4,3.8,3.1-10.5,5.9-18c2.8-7.4-7.8-9.6-11.3-11.1c-3.5-1.5-5-5.9-2.8-8.1c2.1-2.2,4.2-5.9,3.5-11.1
								c-0.7-5.2-8.5-5.2-12-6.7c-3.5-1.5-2.1-5.9,2.1-8.9c4.2-3,7.8-11.8,6.4-16.3c-1.4-4.4-6.4-3-9.9-3s-5.7-1.5-7.1-4.4
								c-1.4-3,2.1-4.4,3.5-8.1c1.4-3.7-0.1-6.9-5.7-7.4c-3.5-0.3-7.1-1.5-7.1-5.2c0-3.7,7.1-8.9,4.9-14.1
								c-2.1-5.2-8.5-2.2-11.3-2.2c-2.8,0-2.1-2.2-0.7-12.6c1.4-10.4-4.1-9.8-10.6-8.5c-4.8,1-8.4,6.3-13.4,5.5
								c-5-0.7-15.5-16.4-20.4-20.1c-4.9-3.7-11.6-13.4-22.6-3.4c-1.7,1.6-5.3,5.7-8,7.9c-0.9,0.5-1.8,1-2.8,1.6
								c-4.8,3.1-10.3,4.3-13.3,4.3c-6.4,0-11-16.5-18.8-17.9c-7.8-1.5-13,5.9-19.4,19.8c-1.9,4.2-4,9.2-2.7,14
								c1.6,5.9,4.6-5.1,13-5.1c3.9,0,7,1,9.2,2.5c4.5,3,6.9,8.1,6.4,12.4c-0.5,4.6-0.5,9.2-6.4,14c-6.4,3.8-13.2,2.5-16,1
								c-1.5-0.7-2-1-3.3-2.5c-0.4-0.5-1.3-1.5-1.8-3.1c-0.4-1.2-1.2-1.9-2-0.9c-0.9,1.2-1.2,2.9-1.2,2.9
								c-0.9,4.5-5.1,16.1-8.6,21.3c-3.5,5.2-14.1,10.4-18.4,14.1c-4.2,3.7-12.6,11.1-15.5,20.7c-3,9.6-6.4,15.6-9.9,18.5
								c-3.5,2.9-19.8,11.6-24,18.1c-2.7,4.1-1,3-2.8,7.8c-4.1,10.4,9.2,16.3,13.4,18.5c4.2,2.2,12.6,6,16.6,12.7
								c1.3,2.3,6.1,6.6,18.8,3.6c12.7-3,16.7-15.9,16.7-15.9c0.7-2.2,1.6-4.8,4.4-4.8c2.8,0,4.9,1.5,8.5,1.5c3.5,0,6-5.6,5.8-10.8
								c-0.1-3.1-0.9-2-1.4-4.6c-0.2-1.3,2.4-1.3,3-0.5c0.6,0.8,0.2,1.3,8.8,4.7c10.2,4.1,15.7-15.1,17.8-20.3c2.1-5.2,2-15.3,2-19
								c0-3.7,0.7-4.4,3.5-5.9c2.8-1.5,4.9,2.2,17,2.2c12,0,7.8-14.1,8.5-21.5c0.5-4.9-0.4-7.5-3.7-8.7c-1.5-0.5-4.2-2.8-2.9-4.3
								c2.7-3.2,4.5,1.2,7.4,1.9c2.8,0.7,4.4,1.3,9-1c3.6-1.8,7.2-9.8,9-11.8c2.3-2.7,5.3,8.3,2.5,12.7c-2.8,4.4-10.1,7.2-12.9,13.9
								c-2.8,6.7-2.3,20.4-2.4,23.7c-0.2,3.9-6.3,4.4-8.2,4.3c-8-0.6-12.4-4.1-16.6-4.1c-4.2,0-5.2,10.5-5.2,13.4
								c0,3,1.6,6.3-1.3,10c-2.8,3.7-6.4,6.7-7.8,11.1c-1.4,4.4-1.7,7.6-5.9,10.6c-4.2,3-9.8-1.9-12.7-2.3c-3.9-0.5-6,7.2-7.6,11.7
								c-1,2.8-8,9.1-14.3,11.4c-10.8,3.8-10.4,7.1-10.8,9.1c-0.7,3.7,1.7,8.2,12,9.7c4.3,0.6,14.9-4.3,17-7.7
								c4.5-7.1,6-5.8,9.5-7.2c3.5-1.5,8.7-2.6,12-4.1c20.9-10,34.8-20,39.1-23.7c4.2-3.7,5.6-7.9,4.9-10.8c-0.7-3,1.1-4.3,3.2-2.8
								c2.1,1.5,13.8,3.5,26.5-6.9c12.7-10.4,12.6-36.3,12.6-40c0-3.7,1.4-6.7,5.6-2.2c4.2,4.4,2.3,27.1-5.8,41.4
								c-3.7,6.6-8.3,9-11.1,15.6c-2.8,6.7,9.9,18.5,11.3,22.2c1.4,3.7,0.7,12.6,0,22.2c-0.7,9.6,0.6,12.1,5.6,14.3
								c5,2.2,4.6-0.8,8.9-3.7c5.4-3.6,16.3-5.2,20.6-5.1c21,0.5,26.5,6.3,25.6,9.3c-1.1,3.4-11.3-2.7-28.2-1.9
								c-16.9,0.7-29.7,17-32.2,20.4c-3,4.1-5,8.4-6.6,17.3c-0.8,4.6,0,7.1,2.3,8.1c3.1,1.4,8.9-2.5,10.5-7.5
								c1.5-4.5,5.5-10.5,7.6-12.6c3.3-3.3,5.4-5.4,6.9-6.1c3-1.4,2.7,2,0.4,6.6c-1.3,2.7-2,4.4-3.1,8.5c-1,3.8-1.3,5.1-1.6,7.1
								c-0.5,2.4-0.9,3.5-0.5,7.3c0.3,3.3,1.9,6.7,5.2,6.2c2.9-0.4,6.8-5.7,8.7-9.2c1-1.8,1.2-5.1,2.8-10.5c1.7-5.7,1.4-6.2,2.3-8.9
								c1.5-4.2,2.9-6.4,5.7-7.1c2.8-0.7,2.7,5.2,2.7,5.2c0,1.6-0.4,2.4-2,8.1c-0.9,3.1-2.4,10.3-2.9,14.7c-0.5,5.2,1.7,7.8,5.8,6.6
								c7.7-2.3,8.2-10.1,9.5-15c0.5-2,1.4-7.3,2-9c1-2.6,1.4-4.7,2.8-7.4c1.4-2.7,3-4.4,7.1-3.6c4.1,0.9,16,5.5,33.1,2.1
								c13.8-2.7,28.7-12.7,30.8-26.8C551.3,274.4,540.1,270.2,527.7,266.2z M271.7,238.6c-0.7,0.5-1.3,4.6-1.4,5.7
								c-0.1,1.1-1.8,4.9-5.1,4.7c-1-0.1-2.2,0.3-2.9-3.2c-0.6-3.5,6.7-8.2,6.7-8.2C270.7,237,272.4,238.1,271.7,238.6z
								 M377.6,129.7c-1.5,3.2-3.7,6.2-6.4,7c-2.6,0.8-7.4,1.8-11.5,1.1c-3.7-0.7-5.4-2.2-8-5.1c-4.1-4.6-4.1-19.8,3.5-25.7
								c1.1-0.9,5.1-2.8,5.7-2.9c3.2-0.2,7.6,0.4,10.8,2.7c3.6,2.6,3.5,3.4,5.6,6.8C379.5,118.7,379.5,125.8,377.6,129.7z
								 M352.2,262c-2.1,3.2-1.7,8.7,8.6,9.3c10.3,0.6,37.8,0.2,40.6,0.4c2.8,0.2,10.5,1.4,11.6-2.1c1.1-3.5,2.4-9.6-5.3-9.8
								c-7.7-0.2-12.9,1.5-26.4,1.4c-13.6-0.2-20.1-1.7-20.1-1.7S354.6,258.4,352.2,262z M392,253.8c4.2-0.6,9.7-1.1,10.9-1.4
								c3.1-0.9,1.5-4.1,1-6.7c-0.6-2.5-3-5.3-5.9-4.6c-3,0.8-5.8,1.1-9.6,1.9c-3.9,0.8-9.5,1.5-9.5,1.5s-4.7,1-5.9,3.7
								c-1.1,2.6-3.4,6.9,1.2,7.1C378.7,255.6,389.6,254.1,392,253.8z M328.4,280.9c-0.4,4,2.8,5.4,5.5,6c3.3,0.7,6.3,1.9,6.3,1.9
								c14.3,2.6,40.2,4.5,58.1,3.7c3.7-0.2,3.9,1,9.4,0.4c5.5-0.6,6.3-4.4,5.9-9.4c-0.4-5-9.1-3.6-9.1-3.6
								c-40.8,1.9-66.5-4.7-66.5-4.7C331.6,273.3,328.8,276.8,328.4,280.9z"/>
						</g>
					</g>
				</g>
			</g>
			<path class="st1" d="M319.3,109.6c-6,0-10.9,5.7-10.9,12.8c0,7.1,3.4,12.8,9.4,12.8c0.1,0,0.6,0,0.6-0.6c0.1-0.5-0.3-1-0.3-1
				c-1.3-0.7-3.1-2.5-3.1-6.1c0-2.7,1.1-5,2.8-6.5l1.5-0.7c0,0,1.8-1,2.5,0.4c0.3,0.7,0.7,2.2,0.7,3.3c0,1.2-0.4,3.2,0.2,2.9
				c0.9-0.5,1.1-1.6,1.3-2.3c0.1-0.3,0.4-1.9,0.3-3.4c0-0.3,0.2-0.7,0.5-0.7c0.4,0,0.5,0.1,0.7,0.2c0.3,0.2,0.7,0.6,1,0.9
				c0.8,1.3,1.2,3,1,5.4c-0.2,1.6-1.2,2.3-0.1,3c1.2,0.1,2-2.1,2.2-2.5c0.3-1.2,0.4-3.7,0.4-5C330.2,115.3,325.3,109.6,319.3,109.6z
				"/>
			<path class="st1" d="M363.6,107.2c-6.5,0-11.7,6.2-11.7,13.8c0,7.6,3.6,13.8,10.1,13.8c0.1,0,0.6,0,0.7-0.7
				c0.1-0.5-0.4-1.1-0.3-1.1c-1.4-0.7-3.4-2.7-3.4-6.5c0-2.9,1.2-5.4,3-7l1.7-0.8c0,0,2-1,2.7,0.5c0.3,0.7,0.8,2.3,0.8,3.6
				c0,1.3-0.4,3.5,0.3,3.1c1-0.6,1.2-1.7,1.4-2.5c0.1-0.4,0.4-2,0.4-3.7c0-0.4,0.2-0.7,0.6-0.8c0.4,0,0.6,0.1,0.8,0.2
				c0.3,0.2,0.8,0.7,1,1c0.9,1.4,1.3,3.3,1.1,5.8c-0.2,1.7-1.3,2.4-0.1,3.2c1.2,0.1,2.2-2.3,2.3-2.7c0.3-1.2,0.5-4,0.5-5.3
				C375.4,113.4,370.1,107.2,363.6,107.2z"/>
			<path class="st0" d="M234,233c0,0-5.6,1.2-4.5-2.1c1.1-3.4,3.1-4.3,4.1-4.5c1-0.2,1.9-0.3,2.6-0.8c0.7-0.4,1.3-1.7,1.6,0.2
				C238.1,227.7,234.9,233.6,234,233z"/>
		</g>
		<path class="st1" d="M319.6,283.3c-2.1-2.5-6.3,4.7-10.7,6.7c-1.7,0.8-4.1,2.7-12.4,2.2c-9.7-1.3-23.1-4-35.1-3.5
			c-16.2,0.7-28.1,14.6-30.1,18.2c-2.2,3.9-3.7,6.1-5.6,15.2c-0.7,3.6,0.9,7.5,3.1,8.5c3,1.3,6.2-0.4,7.8-5.2
			c1.5-4.3,5.6-12.1,7.7-14.1c3.2-3.2,3.3-2.9,4.7-3.6c1.9-0.9,4.8,0,2.7,3.3c-1.6,2.5-3,5-5,8.5c-1.4,2.5-2.8,4.2-3.6,7
			c-0.9,2.8-1.9,7.6-2,11.4c-0.1,3.4,4.8,6.9,8.3,4.3c2.3-1.7,4.6-6.3,6.6-10.5c1.8-3.8,3.3-7.2,4.4-10c2-4.9,3.2-7.5,5-8.9
			c2.6-2.1,2.6-2.8,5.3-3.6c2.7-0.7,2,3.4,2,3.4c-0.7,1.8-2.7,4.5-3.8,6.3c-1.3,2.2-2.7,4.8-4,9.6c-1.3,4.8-2.7,13.1-0.4,15.4
			c3.1,3.1,8.4-0.7,9.3-3c3.7-8.6,3.7-13.1,4.6-16.5c0.7-2.4,2.7-7.1,3.8-8.7c0.7-0.9,3.1-5.2,4.9-5.9c2.3-0.8,3.8-1.1,6.5-0.4
			c1.8,0.5,1.7,1.4,4.4,1.8c5.9,1,9.7-3.4,11.2-7.4c2.2-6.1,4.5-7.9,6.1-9.6C318.7,290.8,321.7,285.8,319.6,283.3z"/>
	</g>
</g>
</svg>
